<svg xmlns="http://www.w3.org/2000/svg" version="1.1" xmlns:xlink="http://www.w3.org/1999/xlink" xmlns:svgjs="http://svgjs.dev/svgjs" width="1500" height="901" viewBox="0 0 1500 901"><g transform="matrix(1,0,0,1,-0.9090909090909918,0.7317030505097932)"><svg viewBox="0 0 396 238" data-background-color="#ffffff" preserveAspectRatio="xMidYMid meet" height="901" width="1500" xmlns="http://www.w3.org/2000/svg" xmlns:xlink="http://www.w3.org/1999/xlink"><g id="tight-bounds" transform="matrix(1,0,0,1,0.2400000000000091,-0.19328005107806234)"><svg viewBox="0 0 395.52 238.38656010215612" height="238.38656010215612" width="395.52"><g><svg viewBox="0 0 395.52000000000004 238.38656010215615" height="238.38656010215612" width="395.52"><g transform="matrix(1,0,0,1,0,173.72425981200038)"><svg viewBox="0 0 395.52000000000004 64.66230029015577" height="64.66230029015577" width="395.52000000000004"><g id="textblocktransform"><svg viewBox="0 0 395.52000000000004 64.66230029015577" height="64.66230029015577" width="395.52000000000004" id="textblock"><g><rect width="75.54432000000001" height="3.304392539734472" y="53.32495948393348" fill="#009688" data-fill-palette-color="tertiary"></rect><rect width="75.54432000000001" height="3.304392539734472" y="53.32495948393348" x="319.97568" fill="#009688" data-fill-palette-color="tertiary"></rect></g><g><svg viewBox="0 0 395.52000000000004 36.64176896683187" height="36.64176896683187" width="395.52000000000004"><g transform="matrix(1,0,0,1,0,0)"><svg width="395.52000000000004" viewBox="3.85 -35.9 393.40999999999997 36.449999999999996" height="36.64176896683187" data-palette-color="#009688"><path d="M12.55-30.2L12.55-30.2 7.9-30.2 7.9-16.75 13-16.75Q16.45-16.75 18.28-18.63 20.1-20.5 20.1-23.45L20.1-23.45Q20.1-30.2 12.55-30.2ZM13.15-13.3L12.75-13.3 7.9-13.3 7.9 0 3.85 0 3.85-33.7 12.3-33.7Q18.15-33.7 21.18-30.95 24.2-28.2 24.2-23.35L24.2-23.35Q24.1-19.85 22.35-17.4 20.6-14.95 17.4-13.95L17.4-13.95 26.25 0 21.4 0 13.15-13.3ZM49.55-5L49.55-1.3Q46.6 0.25 42.35 0.25L42.35 0.25Q36.6 0.25 33.07-3.28 29.55-6.8 29.55-12.6L29.55-12.6Q29.55-18.65 32.7-22.15 35.85-25.65 40.8-25.65L40.8-25.65Q45.55-25.65 48.35-22.6 51.15-19.55 51.15-13.95L51.15-13.95Q51.15-12.35 50.9-11L50.9-11 33.6-11Q34.05-7.25 36.45-5.25 38.85-3.25 42.75-3.25L42.75-3.25Q47-3.25 49.55-5L49.55-5ZM40.8-22.2L40.8-22.2Q37.95-22.2 35.95-20.15 33.95-18.1 33.6-14.3L33.6-14.3 47.2-14.3 47.2-15.3Q47.2-18.45 45.5-20.33 43.8-22.2 40.8-22.2ZM74.59-4.65L74.59-0.9Q72.2 0.55 68.7 0.55L68.7 0.55Q62.7 0.55 59.17-3.28 55.65-7.1 55.65-12.6L55.65-12.6Q55.65-18 59.17-21.9 62.7-25.8 68.8-25.8L68.8-25.8Q72.05-25.8 74.59-24.4L74.59-24.4 74.59-20.65Q72.3-22.2 69.2-22.2L69.2-22.2Q64.9-22.2 62.32-19.43 59.75-16.65 59.75-12.55L59.75-12.55Q59.8-8.45 62.25-5.73 64.7-3 69.2-3L69.2-3Q72.09-3 74.59-4.65L74.59-4.65ZM84.59-13.85L84.59 0 80.64 0 80.69-25.35 84.59-25.35 84.59-20.9Q86.59-25.6 91.49-25.6L91.49-25.6Q92.39-25.6 92.89-25.5L92.89-25.5 92.89-21.6Q91.84-21.95 90.74-21.95L90.74-21.95Q88.09-21.95 86.34-19.5 84.59-17.05 84.59-13.85L84.59-13.85ZM116.69-25.35L116.69 0 112.74 0 112.74-4.4Q110.74 0.3 104.79 0.3L104.79 0.3Q101.04 0.3 98.87-1.93 96.69-4.15 96.69-7.9L96.69-7.9 96.69-25.35 100.64-25.35 100.64-8.9Q100.64-6.15 102.04-4.7 103.44-3.25 105.84-3.25L105.84-3.25Q108.99-3.25 110.87-5.45 112.74-7.65 112.74-11.4L112.74-11.4 112.74-25.35 116.69-25.35ZM128.14-25.35L128.14 0 124.19 0 124.19-25.35 128.14-25.35ZM127.99-35.15Q128.74-34.4 128.74-33.3 128.74-32.2 127.99-31.48 127.24-30.75 126.14-30.75 125.04-30.75 124.31-31.48 123.59-32.2 123.59-33.3 123.59-34.4 124.31-35.15 125.04-35.9 126.14-35.9 127.24-35.9 127.99-35.15ZM148.34-4.4L148.34-0.65Q146.69 0.25 144.64 0.25L144.64 0.25Q137.14 0.25 137.14-7.4L137.14-7.4 137.14-22.15 133.09-22.15 133.09-25.35 137.14-25.35 137.14-31.65 141.09-31.65 141.09-25.35 148.09-25.35 148.09-22.15 141.09-22.15 141.09-7.3Q141.09-3.25 144.89-3.25L144.89-3.25Q146.84-3.25 148.34-4.4L148.34-4.4ZM172.58-5L172.58-1.3Q169.63 0.25 165.38 0.25L165.38 0.25Q159.63 0.25 156.11-3.28 152.58-6.8 152.58-12.6L152.58-12.6Q152.58-18.65 155.73-22.15 158.88-25.65 163.83-25.65L163.83-25.65Q168.58-25.65 171.38-22.6 174.18-19.55 174.18-13.95L174.18-13.95Q174.18-12.35 173.93-11L173.93-11 156.63-11Q157.08-7.25 159.48-5.25 161.88-3.25 165.78-3.25L165.78-3.25Q170.03-3.25 172.58-5L172.58-5ZM163.83-22.2L163.83-22.2Q160.98-22.2 158.98-20.15 156.98-18.1 156.63-14.3L156.63-14.3 170.23-14.3 170.23-15.3Q170.23-18.45 168.53-20.33 166.83-22.2 163.83-22.2ZM184.08-13.85L184.08 0 180.13 0 180.18-25.35 184.08-25.35 184.08-20.9Q186.08-25.6 190.98-25.6L190.98-25.6Q191.88-25.6 192.38-25.5L192.38-25.5 192.38-21.6Q191.33-21.95 190.23-21.95L190.23-21.95Q187.58-21.95 185.83-19.5 184.08-17.05 184.08-13.85L184.08-13.85ZM215.93-14.2L215.93-14.2 215.28-12.3 227.23-12.3 226.58-14.25 221.33-30.45Q220.72-28.3 215.93-14.2ZM214.13-8.85L211.13 0 206.78 0 218.53-33.7 224.13-33.7 235.68 0 231.33 0 228.38-8.85 214.13-8.85ZM256.32-6.75L256.32-6.75Q256.32-3.5 254.05-1.6 251.77 0.3 247.82 0.3L247.82 0.3Q243.22 0.3 240.37-1.25L240.37-1.25 240.37-5.1Q243.72-3.1 247.57-3.1L247.57-3.1Q249.87-3.1 251.07-4 252.27-4.9 252.27-6.45L252.27-6.45Q252.27-8.25 250.95-9.25 249.62-10.25 246.52-11.5L246.52-11.5Q243.67-12.6 241.95-14.25 240.22-15.9 240.22-18.7L240.22-18.7Q240.22-21.85 242.6-23.73 244.97-25.6 248.52-25.6L248.52-25.6Q252.47-25.6 254.87-24.5L254.87-24.5 254.87-20.75Q252.57-22.15 248.57-22.15L248.57-22.15Q246.57-22.15 245.4-21.23 244.22-20.3 244.22-18.85L244.22-18.85Q244.22-17.95 244.57-17.28 244.92-16.6 245.95-15.95 246.97-15.3 247.45-15.08 247.92-14.85 249.52-14.15L249.52-14.15Q252.72-12.85 254.52-11.2 256.32-9.55 256.32-6.75ZM276.92-6.75L276.92-6.75Q276.92-3.5 274.65-1.6 272.37 0.3 268.42 0.3L268.42 0.3Q263.82 0.3 260.97-1.25L260.97-1.25 260.97-5.1Q264.32-3.1 268.17-3.1L268.17-3.1Q270.47-3.1 271.67-4 272.87-4.9 272.87-6.45L272.87-6.45Q272.87-8.25 271.55-9.25 270.22-10.25 267.12-11.5L267.12-11.5Q264.27-12.6 262.55-14.25 260.82-15.9 260.82-18.7L260.82-18.7Q260.82-21.85 263.2-23.73 265.57-25.6 269.12-25.6L269.12-25.6Q273.07-25.6 275.47-24.5L275.47-24.5 275.47-20.75Q273.17-22.15 269.17-22.15L269.17-22.15Q267.17-22.15 266-21.23 264.82-20.3 264.82-18.85L264.82-18.85Q264.82-17.95 265.17-17.28 265.52-16.6 266.55-15.95 267.57-15.3 268.05-15.08 268.52-14.85 270.12-14.15L270.12-14.15Q273.32-12.85 275.12-11.2 276.92-9.55 276.92-6.75ZM286.42-25.35L286.42 0 282.47 0 282.47-25.35 286.42-25.35ZM286.27-35.15Q287.02-34.4 287.02-33.3 287.02-32.2 286.27-31.48 285.52-30.75 284.42-30.75 283.32-30.75 282.59-31.48 281.87-32.2 281.87-33.3 281.87-34.4 282.59-35.15 283.32-35.9 284.42-35.9 285.52-35.9 286.27-35.15ZM309.17-6.75L309.17-6.75Q309.17-3.5 306.89-1.6 304.62 0.3 300.67 0.3L300.67 0.3Q296.07 0.3 293.22-1.25L293.22-1.25 293.22-5.1Q296.57-3.1 300.42-3.1L300.42-3.1Q302.72-3.1 303.92-4 305.12-4.9 305.12-6.45L305.12-6.45Q305.12-8.25 303.79-9.25 302.47-10.25 299.37-11.5L299.37-11.5Q296.52-12.6 294.79-14.25 293.07-15.9 293.07-18.7L293.07-18.7Q293.07-21.85 295.44-23.73 297.82-25.6 301.37-25.6L301.37-25.6Q305.32-25.6 307.72-24.5L307.72-24.5 307.72-20.75Q305.42-22.15 301.42-22.15L301.42-22.15Q299.42-22.15 298.24-21.23 297.07-20.3 297.07-18.85L297.07-18.85Q297.07-17.95 297.42-17.28 297.77-16.6 298.79-15.95 299.82-15.3 300.29-15.08 300.77-14.85 302.37-14.15L302.37-14.15Q305.57-12.85 307.37-11.2 309.17-9.55 309.17-6.75ZM327.21-4.4L327.21-0.65Q325.56 0.25 323.51 0.25L323.51 0.25Q316.01 0.25 316.01-7.4L316.01-7.4 316.01-22.15 311.96-22.15 311.96-25.35 316.01-25.35 316.01-31.65 319.96-31.65 319.96-25.35 326.96-25.35 326.96-22.15 319.96-22.15 319.96-7.3Q319.96-3.25 323.76-3.25L323.76-3.25Q325.71-3.25 327.21-4.4L327.21-4.4ZM340.71-3.05L340.71-3.05Q343.41-3.05 345.01-4.58 346.61-6.1 346.61-8.45L346.61-8.45 346.61-11.7 342.21-11.7Q339.01-11.7 337.41-10.45 335.81-9.2 335.81-7.3 335.81-5.4 337.06-4.23 338.31-3.05 340.71-3.05ZM346.66 0L346.66-3Q344.71 0.25 339.56 0.25L339.56 0.25Q336.01 0.25 333.84-1.85 331.66-3.95 331.66-7.15L331.66-7.15Q331.66-10.8 334.44-12.83 337.21-14.85 342.01-14.85L342.01-14.85 346.61-14.85 346.61-16.15Q346.61-19.15 345.26-20.68 343.91-22.2 340.71-22.2L340.71-22.2Q336.66-22.2 333.51-20.05L333.51-20.05 333.51-24Q336.36-25.75 341.01-25.75L341.01-25.75Q350.56-25.75 350.56-16.05L350.56-16.05 350.56 0 346.66 0ZM377.56-17.45L377.56 0 373.61 0 373.61-16.4Q373.61-19.2 372.18-20.68 370.76-22.15 368.46-22.15L368.46-22.15Q365.61-22.15 363.53-19.95 361.46-17.75 361.46-13.85L361.46-13.85 361.46 0 357.56 0 357.56-25.35 361.46-25.35 361.46-20.95Q363.71-25.7 369.46-25.7L369.46-25.7Q373.16-25.7 375.36-23.45 377.56-21.2 377.56-17.45L377.56-17.45ZM397.26-4.4L397.26-0.65Q395.61 0.25 393.56 0.25L393.56 0.25Q386.06 0.25 386.06-7.4L386.06-7.4 386.06-22.15 382.01-22.15 382.01-25.35 386.06-25.35 386.06-31.65 390.01-31.65 390.01-25.35 397.01-25.35 397.01-22.15 390.01-22.15 390.01-7.3Q390.01-3.25 393.81-3.25L393.81-3.25Q395.76-3.25 397.26-4.4L397.26-4.4Z" opacity="1" transform="matrix(1,0,0,1,0,0)" fill="#009688" class="wordmark-text-0" data-fill-palette-color="primary" id="text-0"></path></svg></g></svg></g><g transform="matrix(1,0,0,1,75.54432000000001,45.29201121744567)"><svg viewBox="0 0 244.43136 19.370289072710104" height="19.370289072710104" width="244.43136"><g transform="matrix(1,0,0,1,8,0)"><svg width="228.43136" viewBox="4.58 -34.2 535.3299999999999 45.400000000000006" height="19.370289072710104" data-palette-color="#009688"><path d="M26.82-28.97Q31.12-24.67 31.12-16.68 31.12-8.7 26.66-4.35 22.19 0 13.78 0L13.78 0 4.58 0 4.58-33.27 14.76-33.27Q22.52-33.27 26.82-28.97ZM8.44-3.34L13.14-3.34Q20.05-3.34 23.53-6.74 27.02-10.14 27.02-16.72 27.02-23.31 23.76-26.61 20.5-29.9 14.05-29.9L14.05-29.9 8.44-29.9 8.44-3.34ZM48.51 0.46L48.51 0.46Q42.97 0.46 39.76-2.91L39.76-2.91Q36.57-6.27 36.57-12.29 36.57-18.3 39.53-21.84L39.53-21.84Q42.54-25.38 47.38-25.38 52.22-25.38 54.95-22.3 57.68-19.21 57.68-14.18L57.68-14.18 57.68-11.78 40.49-11.78Q40.62-7.41 42.72-5.12 44.82-2.83 48.77-2.83 52.73-2.83 56.6-4.52L56.6-4.52 56.6-1.16Q54.65-0.3 52.83 0.08 51.01 0.46 48.51 0.46ZM40.59-14.86L53.64-14.86Q53.64-18.43 52.05-20.32 50.45-22.22 47.48-22.22 44.51-22.22 42.7-20.27 40.9-18.33 40.59-14.86L40.59-14.86ZM74.08 0.46L74.08 0.46Q68.65 0.46 65.67-2.88L65.67-2.88Q62.71-6.22 62.71-12.37 62.71-18.53 65.72-21.97L65.72-21.97Q68.75-25.38 74.31-25.38L74.31-25.38Q76.13-25.38 77.93-25 79.72-24.62 80.73-24.09L80.73-24.09 79.57-20.88Q76.76-22.04 74.24-22.04L74.24-22.04Q66.63-22.04 66.63-12.36L66.63-12.36Q66.63-7.74 68.5-5.28 70.37-2.83 73.98-2.83L73.98-2.83Q77.07-2.83 80.38-4.2L80.38-4.2 80.38-0.83Q77.88 0.46 74.08 0.46ZM89.78-29.82Q89.15-29.17 88.16-29.17 87.18-29.17 86.57-29.82 85.96-30.46 85.96-31.7 85.96-32.94 86.57-33.57 87.18-34.2 88.16-34.2 89.15-34.2 89.78-33.56 90.41-32.91 90.41-31.69 90.41-30.46 89.78-29.82ZM86.27-24.92L90.06-24.92 90.06 0 86.27 0 86.27-24.92ZM114.15-6.8L114.15-6.8Q114.15-3.31 111.55-1.43 108.96 0.46 104.14 0.46 99.31 0.46 96.53-1.11L96.53-1.11 96.53-4.63Q100.42-2.65 104.36-2.65L104.36-2.65Q110.51-2.65 110.51-6.47L110.51-6.47Q110.51-7.94 109.22-8.99 107.93-10.04 104.41-11.36 100.9-12.69 99.36-13.68L99.36-13.68Q96.45-15.65 96.45-18.76 96.45-21.87 98.93-23.62 101.41-25.38 105.61-25.38 109.82-25.38 113.61-23.76L113.61-23.76 112.28-20.68Q108.56-22.22 105.69-22.22 102.82-22.22 101.44-21.4 100.07-20.58 100.07-19.06L100.07-19.06Q100.07-18.1 100.56-17.38 101.05-16.66 102.19-16.01 103.33-15.37 106.59-14.18L106.59-14.18Q111.04-12.54 112.59-10.91 114.15-9.28 114.15-6.8ZM123.77-29.82Q123.14-29.17 122.16-29.17 121.17-29.17 120.56-29.82 119.96-30.46 119.96-31.7 119.96-32.94 120.56-33.57 121.17-34.2 122.16-34.2 123.14-34.2 123.77-33.56 124.41-32.91 124.41-31.69 124.41-30.46 123.77-29.82ZM120.26-24.92L124.05-24.92 124.05 0 120.26 0 120.26-24.92ZM133.72-21.99Q136.79-25.38 142.1-25.38 147.41-25.38 150.49-21.9 153.57-18.43 153.57-12.42 153.57-6.42 150.49-2.96L150.49-2.96Q147.41 0.46 142.02 0.46L142.02 0.46Q136.94 0.51 133.76-3.06 130.57-6.62 130.65-12.49L130.65-12.49Q130.65-18.6 133.72-21.99ZM142.05-22.17L142.05-22.17Q134.57-22.17 134.57-12.49L134.57-12.49Q134.57-7.71 136.47-5.21 138.38-2.7 142.1-2.7 145.81-2.7 147.74-5.19 149.66-7.68 149.66-12.47 149.66-17.26 147.74-19.72 145.81-22.17 142.05-22.17ZM181.02-16.25L181.02 0 177.23 0 177.23-16.13Q177.23-19.21 175.84-20.69 174.45-22.17 171.52-22.17L171.52-22.17Q167.6-22.17 165.78-20.06 163.96-17.95 163.96-13.07L163.96-13.07 163.96 0 160.17 0 160.17-24.92 163.25-24.92 163.86-21.51 164.04-21.51Q165.2-23.33 167.3-24.36 169.4-25.38 171.97-25.38L171.97-25.38Q176.52-25.38 178.77-23.18 181.02-20.98 181.02-16.25L181.02-16.25ZM221.54-8.85L221.54-8.85Q221.54-4.45 218.37-2 215.19 0.46 209.49 0.46 203.79 0.46 200.61-1.06L200.61-1.06 200.61-4.8Q205.11-2.93 209.86-2.93L209.86-2.93Q213.68-2.93 215.66-4.37 217.65-5.81 217.65-8.49L217.65-8.49Q217.65-10.21 216.95-11.3 216.26-12.39 214.61-13.35 212.97-14.31 209.68-15.47L209.68-15.47Q205.06-17.11 203.05-19.39 201.04-21.66 201.04-25.43 201.04-29.2 203.92-31.47L203.92-31.47Q206.85-33.75 211.69-33.75 216.53-33.75 220.71-31.93L220.71-31.93 219.49-28.54Q215.37-30.28 211.5-30.28L211.5-30.28Q208.42-30.28 206.69-28.96 204.96-27.63 204.96-25.3L204.96-25.3Q204.96-23.53 205.58-22.47 206.2-21.41 207.74-20.42L207.74-20.42Q209.33-19.46 212.39-18.4L212.39-18.4Q217.65-16.53 219.57-14.38L219.57-14.38Q221.54-12.26 221.54-8.85ZM227.53-8.62L227.53-24.92 231.35-24.92 231.35-8.75Q231.35-5.69 232.75-4.2 234.15-2.7 237.08-2.7L237.08-2.7Q241-2.7 242.8-4.85 244.59-7 244.59-11.83L244.59-11.83 244.59-24.92 248.38-24.92 248.38 0 245.27 0 244.72-3.34 244.51-3.34Q243.35-1.52 241.3-0.53 239.26 0.46 236.6 0.46L236.6 0.46Q232 0.46 229.77-1.73 227.53-3.92 227.53-8.62L227.53-8.62ZM272.58-5.31Q274.42-7.91 274.42-12.54 274.42-17.16 272.6-19.67 270.78-22.17 267.44-22.17L267.44-22.17Q263.65-22.17 261.93-20.07 260.21-17.97 260.16-13.32L260.16-13.32 260.16-12.49Q260.16-7.23 261.9-4.97 263.65-2.7 267.52-2.7L267.52-2.7Q270.75-2.7 272.58-5.31ZM275.63-21.99Q278.33-18.6 278.33-12.46 278.33-6.32 275.59-2.93 272.85 0.46 267.83 0.46 262.81 0.46 260.16-3.21L260.16-3.21 259.88-3.21Q260.16-0.91 260.16 0.94L260.16 0.94 260.16 11.2 256.37 11.2 256.37-24.92 259.45-24.92 259.98-21.51 260.16-21.51Q262.89-25.38 267.91-25.38 272.92-25.38 275.63-21.99ZM301.12-5.31Q302.95-7.91 302.95-12.54 302.95-17.16 301.13-19.67 299.31-22.17 295.98-22.17L295.98-22.17Q292.18-22.17 290.47-20.07 288.75-17.97 288.7-13.32L288.7-13.32 288.7-12.49Q288.7-7.23 290.44-4.97 292.18-2.7 296.05-2.7L296.05-2.7Q299.29-2.7 301.12-5.31ZM304.17-21.99Q306.87-18.6 306.87-12.46 306.87-6.32 304.13-2.93 301.39 0.46 296.37 0.46 291.35 0.46 288.7-3.21L288.7-3.21 288.42-3.21Q288.7-0.91 288.7 0.94L288.7 0.94 288.7 11.2 284.9 11.2 284.9-24.92 287.99-24.92 288.52-21.51 288.7-21.51Q291.43-25.38 296.44-25.38 301.46-25.38 304.17-21.99ZM315.12-21.99Q318.19-25.38 323.5-25.38 328.81-25.38 331.89-21.9 334.98-18.43 334.98-12.42 334.98-6.42 331.89-2.96L331.89-2.96Q328.81 0.46 323.43 0.46L323.43 0.46Q318.34 0.51 315.16-3.06 311.97-6.62 312.05-12.49L312.05-12.49Q312.05-18.6 315.12-21.99ZM323.45-22.17L323.45-22.17Q315.97-22.17 315.97-12.49L315.97-12.49Q315.97-7.71 317.88-5.21 319.79-2.7 323.5-2.7 327.22-2.7 329.14-5.19 331.06-7.68 331.06-12.47 331.06-17.26 329.14-19.72 327.22-22.17 323.45-22.17ZM352.95-25.38L352.95-25.38Q354.67-25.38 355.93-25.13L355.93-25.13 355.43-21.61Q353.93-21.94 352.7-21.94L352.7-21.94Q349.66-21.94 347.51-19.49 345.36-17.04 345.36-13.37L345.36-13.37 345.36 0 341.57 0 341.57-24.92 344.71-24.92 345.14-20.32 345.31-20.32Q346.7-22.78 348.66-24.08 350.62-25.38 352.95-25.38ZM364.65-21.99L364.65-7.33Q364.65-5.08 365.7-3.87 366.75-2.65 368.58-2.65 370.41-2.65 372.06-3.11L372.06-3.11 372.06-0.23Q371.47 0.05 370.22 0.25 368.97 0.46 368.09 0.46L368.09 0.46Q360.86 0.46 360.86-7.15L360.86-7.15 360.86-21.99 357.29-21.99 357.29-23.81 360.86-25.38 362.45-30.71 364.65-30.71 364.65-24.92 371.88-24.92 371.88-21.99 364.65-21.99ZM409.82-8.85L409.82-8.85Q409.82-4.45 406.64-2 403.47 0.46 397.77 0.46 392.07 0.46 388.89-1.06L388.89-1.06 388.89-4.8Q393.39-2.93 398.14-2.93L398.14-2.93Q401.95-2.93 403.94-4.37 405.92-5.81 405.92-8.49L405.92-8.49Q405.92-10.21 405.23-11.3 404.53-12.39 402.89-13.35 401.25-14.31 397.96-15.47L397.96-15.47Q393.33-17.11 391.33-19.39 389.32-21.66 389.32-25.43 389.32-29.2 392.2-31.47L392.2-31.47Q395.13-33.75 399.97-33.75 404.81-33.75 408.98-31.93L408.98-31.93 407.77-28.54Q403.65-30.28 399.78-30.28L399.78-30.28Q396.7-30.28 394.97-28.96 393.23-27.63 393.23-25.3L393.23-25.3Q393.23-23.53 393.85-22.47 394.47-21.41 396.01-20.42L396.01-20.42Q397.61-19.46 400.67-18.4L400.67-18.4Q405.92-16.53 407.84-14.38L407.84-14.38Q409.82-12.26 409.82-8.85ZM415.83 11.2L415.83 11.2Q414.14 11.2 412.42 10.82L412.42 10.82 412.42 7.79Q413.73 8.06 415.22 8.06L415.22 8.06Q419.12 8.06 420.78 3.69L420.78 3.69 422.17 0.13 412.11-24.92 416.16-24.92 421.62-10.72Q423.46-5.66 423.84-3.69L423.84-3.69 424.02-3.69Q424.35-4.98 425.22-7.56 426.09-10.14 431.45-24.92L431.45-24.92 435.5-24.92 424.78 3.46Q423.21 7.63 421.09 9.42 418.96 11.2 415.83 11.2ZM455.64-6.8L455.64-6.8Q455.64-3.31 453.05-1.43 450.46 0.46 445.63 0.46 440.8 0.46 438.02-1.11L438.02-1.11 438.02-4.63Q441.91-2.65 445.86-2.65L445.86-2.65Q452-2.65 452-6.47L452-6.47Q452-7.94 450.71-8.99 449.42-10.04 445.91-11.36 442.39-12.69 440.85-13.68L440.85-13.68Q437.95-15.65 437.95-18.76 437.95-21.87 440.42-23.62 442.9-25.38 447.11-25.38 451.32-25.38 455.11-23.76L455.11-23.76 453.77-20.68Q450.05-22.22 447.18-22.22 444.32-22.22 442.94-21.4 441.56-20.58 441.56-19.06L441.56-19.06Q441.56-18.1 442.05-17.38 442.55-16.66 443.68-16.01 444.82-15.37 448.08-14.18L448.08-14.18Q452.53-12.54 454.09-10.91 455.64-9.28 455.64-6.8ZM465.82-21.99L465.82-7.33Q465.82-5.08 466.87-3.87 467.92-2.65 469.76-2.65 471.59-2.65 473.23-3.11L473.23-3.11 473.23-0.23Q472.65 0.05 471.4 0.25 470.15 0.46 469.26 0.46L469.26 0.46Q462.03 0.46 462.03-7.15L462.03-7.15 462.03-21.99 458.47-21.99 458.47-23.81 462.03-25.38 463.63-30.71 465.82-30.71 465.82-24.92 473.05-24.92 473.05-21.99 465.82-21.99ZM488.75 0.46L488.75 0.46Q483.21 0.46 480-2.91L480-2.91Q476.82-6.27 476.82-12.29 476.82-18.3 479.78-21.84L479.78-21.84Q482.78-25.38 487.62-25.38 492.47-25.38 495.2-22.3 497.93-19.21 497.93-14.18L497.93-14.18 497.93-11.78 480.74-11.78Q480.86-7.41 482.96-5.12 485.06-2.83 489.01-2.83 492.97-2.83 496.84-4.52L496.84-4.52 496.84-1.16Q494.89-0.3 493.07 0.08 491.25 0.46 488.75 0.46ZM480.84-14.86L493.88-14.86Q493.88-18.43 492.29-20.32 490.7-22.22 487.73-22.22 484.76-22.22 482.95-20.27 481.14-18.33 480.84-14.86L480.84-14.86ZM539.91-16.25L539.91 0 536.14 0 536.14-16.23Q536.14-22.17 530.91-22.17L530.91-22.17Q527.37-22.17 525.69-20.15 524.01-18.12 524.01-13.93L524.01-13.93 524.01 0 520.24 0 520.24-16.23Q520.24-19.24 518.95-20.7 517.66-22.17 514.99-22.17L514.99-22.17Q511.4-22.17 509.77-20.03 508.14-17.9 508.14-13.07L508.14-13.07 508.14 0 504.34 0 504.34-24.92 507.43-24.92 508.03-21.51 508.21-21.51Q509.3-23.33 511.24-24.36 513.19-25.38 515.59-25.38L515.59-25.38Q521.43-25.38 523.23-21.16L523.23-21.16 523.43-21.16Q524.57-23.13 526.68-24.25 528.79-25.38 531.47-25.38L531.47-25.38Q535.76-25.38 537.84-23.18 539.91-20.98 539.91-16.25L539.91-16.25Z" opacity="1" transform="matrix(1,0,0,1,0,0)" fill="#009688" class="slogan-text-1" data-fill-palette-color="secondary" id="text-1"></path></svg></g></svg></g></svg></g></svg></g><g transform="matrix(1,0,0,1,119.54811234461363,0)"><svg viewBox="0 0 156.42377531077278 156.42377531077278" height="156.42377531077278" width="156.42377531077278"><g><svg></svg></g><g id="icon-0"><svg viewBox="0 0 156.42377531077278 156.42377531077278" height="156.42377531077278" width="156.42377531077278"><g><path d="M0 78.212c0-43.195 35.017-78.212 78.212-78.212 43.195 0 78.212 35.017 78.212 78.212 0 43.195-35.017 78.212-78.212 78.212-43.195 0-78.212-35.017-78.212-78.212zM78.212 153.119c41.37 0 74.907-33.537 74.907-74.907 0-41.37-33.537-74.907-74.907-74.908-41.37 0-74.907 33.537-74.908 74.908 0 41.37 33.537 74.907 74.908 74.907z" data-fill-palette-color="tertiary" fill="#009688" stroke="transparent"></path></g><g transform="matrix(1,0,0,1,59.48914914398807,33.886243506943245)"><svg viewBox="0 0 37.44547702279664 88.65128829688629" height="88.65128829688629" width="37.44547702279664"><g><svg xmlns="http://www.w3.org/2000/svg" xmlns:xlink="http://www.w3.org/1999/xlink" version="1.1" x="0" y="0" viewBox="0 0.3974665989041597 100.016 236.78553340109585" style="enable-background:new 0 0 100.017 237.183;" xml:space="preserve" width="37.44547702279664" height="88.65128829688629" class="icon-cg-0" data-fill-palette-color="accent" id="cg-0"><g fill="#009688" data-fill-palette-color="accent"><path d="M69.834 50.725c-0.168-0.011-0.335-0.025-0.506-0.025h-5.107l-9.332 15.537-3.033-9.105 3.527-6.432H44.637l3.529 6.432-3.035 9.105-9.332-15.537h-5.105c-0.155 0-0.308 0.014-0.46 0.023-1.814 0.036-4.766 0.44-8.119 2.132-5.379 2.666-11.178 8.501-15.236 18.84C2.772 82.074 0.014 97.082 0 119.739c0.002 5.856 0.189 12.225 0.596 19.159 0.248 4.251 3.777 7.531 7.981 7.532 0.157 0 0.314-0.004 0.473-0.014 4.41-0.259 7.775-4.044 7.519-8.456-0.391-6.648-0.568-12.706-0.568-18.221-0.035-24.215 3.496-37.818 6.964-44.917V224.82c0 6.83 5.537 12.363 12.363 12.363 6.828 0 12.365-5.533 12.365-12.363v-90.272h4.635v90.272c0 6.83 5.537 12.363 12.363 12.363 6.828 0 12.365-5.533 12.365-12.363V74.866c0.592 1.215 1.189 2.609 1.778 4.235 2.818 7.812 5.189 20.631 5.181 40.638 0 5.516-0.176 11.573-0.563 18.225-0.259 4.412 3.11 8.195 7.521 8.453 0.159 0.009 0.316 0.014 0.473 0.014 4.205 0 7.73-3.283 7.98-7.536 0.401-6.932 0.588-13.299 0.59-19.155-0.041-30.182-4.861-46.885-11.436-56.929-3.282-4.985-7.127-8.183-10.679-9.955C74.58 51.177 71.65 50.766 69.834 50.725zM50.01 74.797c1.934 0 3.5 1.566 3.5 3.5s-1.566 3.5-3.5 3.5c-1.934 0-3.5-1.566-3.5-3.5S48.077 74.797 50.01 74.797zM50.01 92.713c1.934 0 3.5 1.566 3.5 3.5 0 1.933-1.566 3.499-3.5 3.499-1.934 0-3.5-1.566-3.5-3.499C46.51 94.279 48.077 92.713 50.01 92.713zM50.01 117.628c-1.934 0-3.5-1.566-3.5-3.5 0-1.932 1.566-3.5 3.5-3.5 1.934 0 3.5 1.568 3.5 3.5C53.51 116.062 51.944 117.628 50.01 117.628z" fill="#009688" data-fill-palette-color="accent"></path><circle cx="50.01" cy="22.5" r="23" fill="#009688" data-fill-palette-color="accent"></circle></g></svg></g></svg></g></svg></g></svg></g><g></g></svg></g><defs></defs></svg><rect width="395.52" height="238.38656010215612" fill="none" stroke="none" visibility="hidden"></rect></g></svg></g></svg>