<svg xmlns="http://www.w3.org/2000/svg" version="1.1" xmlns:xlink="http://www.w3.org/1999/xlink" xmlns:svgjs="http://svgjs.dev/svgjs" width="1500" height="1500" viewBox="0 0 1500 1500"><rect width="1500" height="1500" fill="#000000"></rect><g transform="matrix(0.6666666666666666,0,0,0.6666666666666666,249.39393939393938,626.466741120867)"><svg viewBox="0 0 396 98" data-background-color="#ffffff" preserveAspectRatio="xMidYMid meet" height="371" width="1500" xmlns="http://www.w3.org/2000/svg" xmlns:xlink="http://www.w3.org/1999/xlink"><g id="tight-bounds" transform="matrix(1,0,0,1,0.2400000000000091,-0.052859689400122534)"><svg viewBox="0 0 395.52 97.10571937880026" height="97.10571937880026" width="395.52"><g><svg viewBox="0 0 395.52 97.10571937880026" height="97.10571937880026" width="395.52"><g><svg viewBox="0 0 395.52 97.10571937880026" height="97.10571937880026" width="395.52"><g id="textblocktransform"><svg viewBox="0 0 395.52 97.10571937880026" height="97.10571937880026" width="395.52" id="textblock"><g><rect width="395.52" height="78.93843436239324" fill="none" stroke-width="8.962371322224001" stroke="#ffffff" data-fill-palette-color="none" data-stroke-palette-color="tertiary"></rect><rect width="395.52" height="19.167285016407018" y="78.93843436239324" fill="#ffffff" data-fill-palette-color="tertiary"></rect></g><g><svg viewBox="0 0 395.52 77.93843436239324" height="77.93843436239324" width="395.52"><g transform="matrix(1,0,0,1,23.461705032,23.461705032000005)"><svg width="348.596589936" viewBox="1.22 -36.47 412.92999999999995 36.98" height="31.015024298393232" data-palette-color="#3f51b5"><g class="wordmark-text-0" data-fill-palette-color="primary" id="text-0"><path d="M9.74-8.18L20.9-8.18 23.29 0 29.37 0 17.99-35.55 12.79-35.55 1.22 0 7.32 0 9.74-8.18ZM19.46-13.21L11.23-13.21 15.38-27.27 19.46-13.21ZM50.75-3.69L51.1 0 56.39 0 56.39-26.42 50.53-26.42 50.53-7.71Q50.19-6.98 49.7-6.38 49.22-5.79 48.58-5.35L48.58-5.35Q47.82-4.86 46.82-4.58 45.82-4.3 44.55-4.3L44.55-4.3Q43.33-4.3 42.43-4.61 41.53-4.93 40.94-5.69L40.94-5.69Q40.35-6.42 40.09-7.65 39.82-8.89 39.82-10.72L39.82-10.72 39.82-26.42 33.98-26.42 33.98-10.77Q33.98-7.79 34.64-5.65 35.3-3.52 36.5-2.15L36.5-2.15Q37.72-0.78 39.41-0.13 41.11 0.51 43.16 0.51L43.16 0.51Q45.55 0.51 47.48-0.6 49.41-1.71 50.75-3.69L50.75-3.69ZM75.51-26.42L75.51-32.86 69.65-32.86 69.65-26.42 63.25-26.42 63.25-22.05 69.65-22.05 69.65-9.06Q69.65-6.52 70.32-4.71 70.99-2.91 72.19-1.76L72.19-1.76Q73.38-0.59 75.06-0.04 76.73 0.51 78.73 0.51L78.73 0.51Q79.83 0.51 80.94 0.4 82.05 0.29 83.08 0.1L83.08 0.1Q84.1-0.1 84.99-0.38 85.88-0.66 86.52-1.05L86.52-1.05 85.88-5.08Q85.44-4.98 84.8-4.85 84.15-4.71 83.42-4.61L83.42-4.61Q82.66-4.49 81.86-4.42 81.05-4.35 80.29-4.35L80.29-4.35Q79.24-4.35 78.36-4.59 77.49-4.83 76.85-5.42L76.85-5.42Q76.22-5.98 75.86-6.97 75.51-7.96 75.51-9.42L75.51-9.42 75.51-22.05 85.44-22.05 85.44-26.42 75.51-26.42ZM92.72-13.45L92.72-13.45 92.72-12.94Q92.72-10.03 93.55-7.59 94.38-5.15 95.96-3.34L95.96-3.34Q97.53-1.54 99.82-0.51 102.12 0.51 105.02 0.51L105.02 0.51Q107.9 0.51 110.19-0.51 112.47-1.54 114.03-3.34L114.03-3.34Q115.59-5.15 116.42-7.59 117.25-10.03 117.25-12.94L117.25-12.94 117.25-13.45Q117.25-16.33 116.42-18.79 115.59-21.24 114.03-23.05L114.03-23.05Q112.44-24.85 110.16-25.88 107.88-26.9 104.97-26.9L104.97-26.9Q102.07-26.9 99.8-25.88 97.53-24.85 95.96-23.05L95.96-23.05Q94.38-21.24 93.55-18.79 92.72-16.33 92.72-13.45ZM98.55-12.94L98.55-12.94 98.55-13.45Q98.55-15.19 98.93-16.77 99.31-18.36 100.11-19.56L100.11-19.56Q100.9-20.75 102.1-21.46 103.31-22.17 104.97-22.17L104.97-22.17Q106.66-22.17 107.87-21.46 109.07-20.75 109.88-19.56L109.88-19.56Q110.64-18.36 111.03-16.77 111.42-15.19 111.42-13.45L111.42-13.45 111.42-12.94Q111.42-11.16 111.04-9.57 110.66-7.98 109.88-6.79L109.88-6.79Q109.1-5.59 107.88-4.9 106.66-4.2 105.02-4.2L105.02-4.2Q103.34-4.2 102.12-4.9 100.9-5.59 100.11-6.79L100.11-6.79Q99.31-7.98 98.93-9.57 98.55-11.16 98.55-12.94Z" fill="#ffffff" data-fill-palette-color="primary"></path><path d="M156.82-13.79L162.83-13.79 169.64 0 175.91 0 175.91-0.32 168.32-15.19Q169.79-15.84 170.98-16.75 172.18-17.65 173.03-18.85L173.03-18.85Q173.89-20.04 174.36-21.53 174.84-23.02 174.84-24.85L174.84-24.85Q174.84-27.51 173.91-29.5 172.98-31.49 171.32-32.84L171.32-32.84Q169.64-34.16 167.32-34.84 165-35.52 162.24-35.55L162.24-35.55 150.96-35.55 150.96 0 156.82 0 156.82-13.79ZM162.32-18.58L156.82-18.58 156.82-30.76 162.24-30.76Q163.76-30.74 164.98-30.36 166.2-29.98 167.05-29.25L167.05-29.25Q167.98-28.47 168.46-27.31 168.93-26.15 168.93-24.61L168.93-24.61Q168.93-23.24 168.49-22.17 168.05-21.09 167.27-20.36L167.27-20.36Q166.39-19.51 165.14-19.06 163.88-18.6 162.32-18.58L162.32-18.58ZM193.37 0.49L193.37 0.49Q197.23 0.49 199.95-1.03 202.67-2.54 203.99-4.44L203.99-4.44 200.86-7.47Q199.64-5.91 197.76-5.07 195.88-4.22 193.71-4.22L193.71-4.22Q192.12-4.22 190.79-4.76 189.46-5.3 188.49-6.27L188.49-6.27Q187.51-7.2 186.95-8.37 186.39-9.55 186.12-11.28L186.12-11.28 186.12-11.4 204.43-11.4 204.43-13.92Q204.43-16.75 203.67-19.14 202.91-21.53 201.42-23.27L201.42-23.27Q199.94-24.98 197.74-25.94 195.54-26.9 192.68-26.9L192.68-26.9Q190.12-26.9 187.86-25.94 185.6-24.98 183.9-23.19L183.9-23.19Q182.19-21.41 181.21-18.9 180.23-16.38 180.23-13.28L180.23-13.28 180.23-12.28Q180.23-9.57 181.17-7.24 182.11-4.91 183.85-3.2L183.85-3.2Q185.58-1.46 188.01-0.49 190.44 0.49 193.37 0.49ZM192.66-22.17L192.66-22.17Q194.12-22.17 195.24-21.67 196.35-21.17 197.08-20.34L197.08-20.34Q197.84-19.48 198.25-18.35 198.67-17.21 198.67-16.06L198.67-16.06 198.67-15.67 186.24-15.67Q186.51-17.19 187.07-18.38 187.63-19.58 188.46-20.43L188.46-20.43Q189.29-21.26 190.35-21.72 191.41-22.17 192.66-22.17ZM222.54-4.2L222.54-4.2Q220.71-4.2 219.49-4.93 218.27-5.66 217.56-6.88L217.56-6.88Q216.83-8.06 216.52-9.61 216.22-11.16 216.22-12.77L216.22-12.77 216.22-13.62Q216.22-15.21 216.52-16.75 216.83-18.29 217.58-19.48L217.58-19.48Q218.29-20.68 219.5-21.42 220.71-22.17 222.54-22.17L222.54-22.17Q223.74-22.17 224.77-21.75 225.81-21.34 226.57-20.63L226.57-20.63Q227.3-19.92 227.7-18.97 228.11-18.02 228.11-16.94L228.11-16.94 233.6-16.94Q233.62-19.14 232.81-20.97 231.99-22.8 230.52-24.12L230.52-24.12Q229.06-25.44 227.02-26.17 224.98-26.9 222.59-26.9L222.59-26.9Q219.56-26.9 217.28-25.84 215-24.78 213.46-22.97L213.46-22.97Q211.92-21.17 211.15-18.75 210.38-16.33 210.38-13.62L210.38-13.62 210.38-12.77Q210.38-10.03 211.16-7.63 211.94-5.22 213.48-3.42L213.48-3.42Q215-1.61 217.28-0.55 219.56 0.51 222.61 0.51L222.61 0.51Q224.81 0.51 226.8-0.21 228.79-0.93 230.33-2.2L230.33-2.2Q231.84-3.42 232.73-5.11 233.62-6.81 233.6-8.74L233.6-8.74 228.11-8.74Q228.11-7.74 227.66-6.91 227.2-6.08 226.45-5.47L226.45-5.47Q225.67-4.86 224.65-4.53 223.64-4.2 222.54-4.2ZM259.31-26.9L259.31-26.9Q256.57-26.9 254.31-25.63 252.05-24.37 250.44-22.14L250.44-22.14 250.42-22.75 250.17-26.42 244.71-26.42 244.71 0 250.54 0 250.54-16.31Q251-17.48 251.69-18.38 252.37-19.29 253.35-19.87L253.35-19.87Q254.25-20.48 255.42-20.78 256.6-21.07 258.06-21.07L258.06-21.07Q259.35-21.07 260.66-20.92 261.97-20.78 263.31-20.48L263.31-20.48 264.14-26.25Q263.38-26.51 262.05-26.71 260.72-26.9 259.31-26.9ZM288.01-3.69L288.36 0 293.65 0 293.65-26.42 287.79-26.42 287.79-7.71Q287.45-6.98 286.96-6.38 286.48-5.79 285.84-5.35L285.84-5.35Q285.08-4.86 284.08-4.58 283.08-4.3 281.81-4.3L281.81-4.3Q280.59-4.3 279.69-4.61 278.79-4.93 278.2-5.69L278.2-5.69Q277.61-6.42 277.34-7.65 277.08-8.89 277.08-10.72L277.08-10.72 277.08-26.42 271.24-26.42 271.24-10.77Q271.24-7.79 271.9-5.65 272.56-3.52 273.76-2.15L273.76-2.15Q274.98-0.78 276.67-0.13 278.37 0.51 280.42 0.51L280.42 0.51Q282.81 0.51 284.74-0.6 286.67-1.71 288.01-3.69L288.01-3.69ZM316.4-26.42L302.39-26.42 302.39-21.56 310.52-21.56 310.52-4.83 302.39-4.83 302.39 0 324.17 0 324.17-4.83 316.4-4.83 316.4-26.42ZM309.98-33.25L309.98-33.25Q309.98-32.32 310.44-31.63 310.89-30.93 311.77-30.66L311.77-30.66Q312.62-30.4 313.33-30.54 314.04-30.69 314.55-31.15L314.55-31.15Q315.57-31.42 316.11-32.21 316.65-33.01 316.48-34.08L316.48-34.08Q316.36-35.13 315.54-35.8 314.72-36.47 313.4-36.47L313.4-36.47Q312.62-36.47 312-36.24 311.38-36.01 310.94-35.6L310.94-35.6Q310.47-35.16 310.23-34.56 309.98-33.96 309.98-33.25ZM342.77-26.42L342.77-32.86 336.91-32.86 336.91-26.42 330.51-26.42 330.51-22.05 336.91-22.05 336.91-9.06Q336.91-6.52 337.58-4.71 338.25-2.91 339.45-1.76L339.45-1.76Q340.65-0.59 342.32-0.04 343.99 0.51 345.99 0.51L345.99 0.51Q347.09 0.51 348.2 0.4 349.31 0.29 350.34 0.1L350.34 0.1Q351.36-0.1 352.25-0.38 353.15-0.66 353.78-1.05L353.78-1.05 353.15-5.08Q352.71-4.98 352.06-4.85 351.41-4.71 350.68-4.61L350.68-4.61Q349.92-4.49 349.12-4.42 348.31-4.35 347.55-4.35L347.55-4.35Q346.5-4.35 345.63-4.59 344.75-4.83 344.11-5.42L344.11-5.42Q343.48-5.98 343.12-6.97 342.77-7.96 342.77-9.42L342.77-9.42 342.77-22.05 352.71-22.05 352.71-26.42 342.77-26.42ZM373.38 0.49L373.38 0.49Q377.24 0.49 379.96-1.03 382.68-2.54 384-4.44L384-4.44 380.88-7.47Q379.66-5.91 377.78-5.07 375.9-4.22 373.72-4.22L373.72-4.22Q372.14-4.22 370.81-4.76 369.48-5.3 368.5-6.27L368.5-6.27Q367.52-7.2 366.96-8.37 366.4-9.55 366.13-11.28L366.13-11.28 366.13-11.4 384.44-11.4 384.44-13.92Q384.44-16.75 383.69-19.14 382.93-21.53 381.44-23.27L381.44-23.27Q379.95-24.98 377.75-25.94 375.56-26.9 372.7-26.9L372.7-26.9Q370.14-26.9 367.88-25.94 365.62-24.98 363.91-23.19L363.91-23.19Q362.2-21.41 361.22-18.9 360.25-16.38 360.25-13.28L360.25-13.28 360.25-12.28Q360.25-9.57 361.19-7.24 362.13-4.91 363.86-3.2L363.86-3.2Q365.59-1.46 368.02-0.49 370.45 0.49 373.38 0.49ZM372.67-22.17L372.67-22.17Q374.14-22.17 375.25-21.67 376.36-21.17 377.09-20.34L377.09-20.34Q377.85-19.48 378.27-18.35 378.68-17.21 378.68-16.06L378.68-16.06 378.68-15.67 366.25-15.67Q366.52-17.19 367.08-18.38 367.65-19.58 368.48-20.43L368.48-20.43Q369.31-21.26 370.37-21.72 371.43-22.17 372.67-22.17ZM409.32-26.9L409.32-26.9Q406.58-26.9 404.32-25.63 402.07-24.37 400.46-22.14L400.46-22.14 400.43-22.75 400.19-26.42 394.72-26.42 394.72 0 400.55 0 400.55-16.31Q401.02-17.48 401.7-18.38 402.38-19.29 403.36-19.87L403.36-19.87Q404.26-20.48 405.44-20.78 406.61-21.07 408.07-21.07L408.07-21.07Q409.37-21.07 410.67-20.92 411.98-20.78 413.32-20.48L413.32-20.48 414.15-26.25Q413.39-26.51 412.06-26.71 410.73-26.9 409.32-26.9Z" fill="#ffffff" data-fill-palette-color="secondary"></path></g></svg></g></svg></g><g transform="matrix(1,0,0,1,85.62735707167394,77.93843436239324)"><svg viewBox="0 0 224.2652858566521 19.167285016407018" height="19.167285016407018" width="224.2652858566521"><g transform="matrix(1,0,0,1,20,3.2)"><svg width="184.2652858566521" viewBox="3.05 -36.79 684.9300000000001 47.46" height="12.767285016407017" data-palette-color="#ffffff"><path d="M3.05-35.55L3.05 0 12.6 0Q14.97 0 17.05-0.59 19.14-1.17 20.87-2.27L20.87-2.27Q22.36-3.2 23.61-4.58 24.85-5.96 25.78-7.59L25.78-7.59Q26.76-9.42 27.29-11.62 27.83-13.82 27.83-16.28L27.83-16.28 27.83-19.21Q27.83-21.78 27.26-24.05 26.68-26.32 25.63-28.2L25.63-28.2Q24.73-29.74 23.52-31.04 22.31-32.35 20.78-33.25L20.78-33.25Q19.02-34.35 16.87-34.95 14.72-35.55 12.26-35.55L12.26-35.55 3.05-35.55ZM9.96-5.52L9.96-29.98 12.26-29.98Q13.5-29.98 14.56-29.7 15.63-29.42 16.5-28.91L16.5-28.91Q17.65-28.22 18.52-27.15 19.38-26.07 19.92-24.71L19.92-24.71Q20.36-23.56 20.59-22.18 20.83-20.8 20.83-19.26L20.83-19.26 20.83-16.28Q20.83-14.65 20.59-13.24 20.36-11.84 19.92-10.69L19.92-10.69Q19.38-9.38 18.64-8.39 17.9-7.4 16.97-6.76L16.97-6.76Q16.06-6.15 14.97-5.83 13.87-5.52 12.6-5.52L12.6-5.52 9.96-5.52ZM46.26 0.49L46.26 0.49Q50.1 0.49 52.9-1 55.71-2.49 57-4.32L57-4.32 53.61-7.98Q52.44-6.47 50.56-5.71 48.68-4.96 46.68-4.96L46.68-4.96Q45.26-4.96 44.06-5.4 42.87-5.83 41.94-6.64L41.94-6.64Q41.04-7.42 40.5-8.39 39.96-9.35 39.62-10.94L39.62-10.94 39.62-11.01 57.54-11.01 57.54-13.89Q57.54-16.8 56.74-19.2 55.93-21.61 54.39-23.32L54.39-23.32Q52.83-25.02 50.6-25.96 48.36-26.9 45.51-26.9L45.51-26.9Q42.75-26.9 40.4-25.9 38.06-24.9 36.35-23.1L36.35-23.1Q34.64-21.29 33.69-18.79 32.74-16.28 32.74-13.26L32.74-13.26 32.74-12.28Q32.74-9.62 33.7-7.29 34.67-4.96 36.45-3.25L36.45-3.25Q38.23-1.51 40.72-0.51 43.21 0.49 46.26 0.49ZM45.46-21.41L45.46-21.41Q46.75-21.41 47.74-21.01 48.73-20.61 49.41-19.92L49.41-19.92Q50.1-19.21 50.49-18.26 50.88-17.31 50.88-16.24L50.88-16.24 50.88-15.7 39.74-15.7Q39.99-16.99 40.48-18.04 40.96-19.09 41.7-19.85L41.7-19.85Q42.4-20.61 43.36-21.01 44.31-21.41 45.46-21.41ZM75.14-4.93L75.14-4.93Q73.51-4.93 72.44-5.59 71.38-6.25 70.77-7.35L70.77-7.35Q70.14-8.42 69.89-9.85 69.65-11.28 69.65-12.82L69.65-12.82 69.65-13.55Q69.65-15.06 69.9-16.48 70.16-17.9 70.8-18.99L70.8-18.99Q71.41-20.09 72.46-20.75 73.51-21.41 75.12-21.41L75.12-21.41Q76.22-21.41 77.14-21.03 78.07-20.65 78.73-20.02L78.73-20.02Q79.39-19.38 79.73-18.51 80.07-17.63 80.02-16.65L80.02-16.65 86.42-16.65Q86.47-18.99 85.64-20.89 84.81-22.78 83.32-24.12L83.32-24.12Q81.81-25.44 79.73-26.17 77.66-26.9 75.21-26.9L75.21-26.9Q72.16-26.9 69.86-25.85 67.55-24.8 65.99-23L65.99-23Q64.42-21.19 63.64-18.76 62.86-16.33 62.86-13.55L62.86-13.55 62.86-12.82Q62.86-10.03 63.65-7.6 64.45-5.18 66.01-3.37L66.01-3.37Q67.55-1.56 69.87-0.52 72.19 0.51 75.26 0.51L75.26 0.51Q77.53 0.51 79.57-0.21 81.61-0.93 83.15-2.2L83.15-2.2Q84.69-3.47 85.58-5.22 86.47-6.98 86.42-9.03L86.42-9.03 80.02-9.03Q80.07-8.11 79.69-7.35 79.32-6.59 78.63-6.05L78.63-6.05Q77.95-5.52 77.05-5.22 76.14-4.93 75.14-4.93ZM109.64-26.42L95.26-26.42 95.26-20.87 102.78-20.87 102.78-5.52 95.26-5.52 95.26 0 116.79 0 116.79-5.52 109.64-5.52 109.64-26.42ZM102.29-33.18L102.29-33.18Q102.29-32.4 102.57-31.73 102.85-31.05 103.36-30.59L103.36-30.59Q103.87-30.1 104.59-29.83 105.31-29.57 106.19-29.57L106.19-29.57Q108-29.57 109.06-30.58 110.12-31.59 110.12-33.18L110.12-33.18Q110.12-34.77 109.06-35.78 108-36.79 106.19-36.79L106.19-36.79Q105.31-36.79 104.59-36.52 103.87-36.25 103.36-35.79L103.36-35.79Q102.85-35.3 102.57-34.63 102.29-33.96 102.29-33.18ZM140.49-7.25L140.49-7.25Q140.49-6.64 140.19-6.13 139.88-5.62 139.27-5.22L139.27-5.22Q138.64-4.83 137.65-4.6 136.66-4.37 135.34-4.37L135.34-4.37Q134.24-4.37 133.21-4.59 132.17-4.81 131.36-5.3L131.36-5.3Q130.56-5.76 130.04-6.53 129.53-7.3 129.46-8.37L129.46-8.37 122.99-8.37Q122.99-6.76 123.78-5.16 124.57-3.56 126.11-2.32L126.11-2.32Q127.65-1.05 129.93-0.27 132.22 0.51 135.2 0.51L135.2 0.51Q137.91 0.51 140.1-0.09 142.3-0.68 143.86-1.76L143.86-1.76Q145.4-2.83 146.24-4.31 147.08-5.79 147.08-7.54L147.08-7.54Q147.08-9.45 146.24-10.83 145.4-12.21 143.91-13.18L143.91-13.18Q142.42-14.14 140.37-14.75 138.32-15.36 135.93-15.75L135.93-15.75Q134.27-15.99 133.19-16.32 132.12-16.65 131.51-17.07L131.51-17.07Q130.87-17.46 130.63-17.96 130.39-18.46 130.39-19.04L130.39-19.04Q130.39-19.63 130.67-20.15 130.95-20.68 131.48-21.07L131.48-21.07Q132.07-21.51 133-21.75 133.93-22 135.17-22L135.17-22Q136.64-22 137.67-21.63 138.71-21.26 139.32-20.65L139.32-20.65Q139.76-20.19 139.98-19.62 140.2-19.04 140.2-18.38L140.2-18.38 146.99-18.38Q146.99-20.21 146.18-21.78 145.38-23.34 143.86-24.49L143.86-24.49Q142.32-25.61 140.13-26.26 137.93-26.9 135.17-26.9L135.17-26.9Q132.53-26.9 130.43-26.25 128.33-25.59 126.87-24.46L126.87-24.46Q125.41-23.34 124.62-21.85 123.84-20.36 123.84-18.73L123.84-18.73Q123.84-17.04 124.61-15.75 125.38-14.45 126.75-13.48L126.75-13.48Q128.12-12.48 130.03-11.78 131.95-11.08 134.27-10.62L134.27-10.62Q136.1-10.28 137.29-9.94 138.49-9.59 139.22-9.2L139.22-9.2Q139.93-8.79 140.21-8.33 140.49-7.86 140.49-7.25ZM169.64-26.42L155.26-26.42 155.26-20.87 162.78-20.87 162.78-5.52 155.26-5.52 155.26 0 176.79 0 176.79-5.52 169.64-5.52 169.64-26.42ZM162.29-33.18L162.29-33.18Q162.29-32.4 162.57-31.73 162.85-31.05 163.37-30.59L163.37-30.59Q163.88-30.1 164.6-29.83 165.32-29.57 166.2-29.57L166.2-29.57Q168.01-29.57 169.07-30.58 170.13-31.59 170.13-33.18L170.13-33.18Q170.13-34.77 169.07-35.78 168.01-36.79 166.2-36.79L166.2-36.79Q165.32-36.79 164.6-36.52 163.88-36.25 163.37-35.79L163.37-35.79Q162.85-35.3 162.57-34.63 162.29-33.96 162.29-33.18ZM182.53-13.45L182.53-13.45 182.53-12.94Q182.53-10.03 183.36-7.58 184.19-5.13 185.8-3.32L185.8-3.32Q187.39-1.51 189.72-0.5 192.05 0.51 195.03 0.51L195.03 0.51Q197.98 0.51 200.3-0.5 202.62-1.51 204.21-3.32L204.21-3.32Q205.8-5.13 206.63-7.58 207.46-10.03 207.46-12.94L207.46-12.94 207.46-13.45Q207.46-16.33 206.63-18.79 205.8-21.24 204.21-23.05L204.21-23.05Q202.6-24.85 200.28-25.88 197.96-26.9 194.98-26.9L194.98-26.9Q192-26.9 189.69-25.88 187.39-24.85 185.8-23.05L185.8-23.05Q184.19-21.24 183.36-18.79 182.53-16.33 182.53-13.45ZM189.32-12.94L189.32-12.94 189.32-13.45Q189.32-15.06 189.63-16.5 189.95-17.94 190.63-19.04L190.63-19.04Q191.32-20.14 192.39-20.78 193.47-21.41 194.98-21.41L194.98-21.41Q196.52-21.41 197.59-20.78 198.67-20.14 199.35-19.04L199.35-19.04Q200.01-17.94 200.33-16.5 200.64-15.06 200.64-13.45L200.64-13.45 200.64-12.94Q200.64-11.28 200.33-9.83 200.01-8.37 199.35-7.3L199.35-7.3Q198.67-6.2 197.59-5.57 196.52-4.93 195.03-4.93L195.03-4.93Q193.49-4.93 192.4-5.57 191.32-6.2 190.63-7.3L190.63-7.3Q189.95-8.37 189.63-9.83 189.32-11.28 189.32-12.94ZM213.46-26.42L213.46 0 220.27 0 220.27-18.77Q220.61-19.31 221.03-19.75 221.44-20.19 221.96-20.51L221.96-20.51Q222.59-20.95 223.41-21.17 224.23-21.39 225.2-21.39L225.2-21.39Q226.37-21.39 227.3-21.15 228.23-20.92 228.89-20.34L228.89-20.34Q229.55-19.75 229.9-18.74 230.26-17.72 230.26-16.16L230.26-16.16 230.26 0 237.04 0 237.04-16.26Q237.04-19.14 236.37-21.15 235.7-23.17 234.5-24.46L234.5-24.46Q233.28-25.73 231.62-26.32 229.96-26.9 227.96-26.9L227.96-26.9Q226.4-26.9 225.01-26.46 223.62-26.03 222.44-25.2L222.44-25.2Q221.76-24.71 221.15-24.1 220.54-23.49 220.03-22.75L220.03-22.75 219.61-26.42 213.46-26.42ZM291.68-9.28L291.68-9.28Q291.68-8.33 291.29-7.53 290.9-6.74 290.16-6.18L290.16-6.18Q289.43-5.62 288.37-5.3 287.31-4.98 285.94-4.98L285.94-4.98Q284.4-4.98 283.12-5.32 281.84-5.66 280.93-6.4L280.93-6.4Q280.01-7.13 279.49-8.28 278.98-9.42 278.93-11.04L278.93-11.04 272.19-11.04Q272.19-8.28 273.26-6.23 274.32-4.17 276.15-2.66L276.15-2.66Q278.08-1.12 280.68-0.33 283.28 0.46 285.94 0.46L285.94 0.46Q288.65 0.46 290.94-0.18 293.24-0.83 294.9-2.1L294.9-2.1Q296.56-3.34 297.5-5.16 298.44-6.98 298.44-9.33L298.44-9.33Q298.44-12.04 297.19-14.11 295.95-16.19 293.85-17.75L293.85-17.75Q292.46-18.7 290.8-19.43 289.14-20.17 287.31-20.68L287.31-20.68Q285.6-21.14 284.24-21.68 282.89-22.22 281.94-22.88L281.94-22.88Q280.98-23.51 280.48-24.32 279.98-25.12 279.98-26.12L279.98-26.12Q279.98-27.08 280.36-27.89 280.74-28.71 281.47-29.32L281.47-29.32Q282.2-29.91 283.27-30.24 284.33-30.57 285.7-30.57L285.7-30.57Q287.18-30.57 288.3-30.16 289.41-29.76 290.16-29.05L290.16-29.05Q290.9-28.32 291.27-27.32 291.65-26.32 291.7-25.12L291.7-25.12 298.39-25.12Q298.39-27.51 297.46-29.52 296.54-31.52 294.87-32.98L294.87-32.98Q293.21-34.42 290.91-35.23 288.6-36.04 285.82-36.04L285.82-36.04Q283.13-36.04 280.84-35.34 278.54-34.64 276.86-33.35L276.86-33.35Q275.17-32.06 274.22-30.22 273.27-28.39 273.27-26.15L273.27-26.15Q273.27-24.19 273.99-22.53 274.71-20.87 276.12-19.51L276.12-19.51Q277.54-18.14 279.77-16.99 282.01-15.84 284.96-15.04L284.96-15.04Q286.87-14.53 288.15-13.93 289.43-13.33 290.24-12.62L290.24-12.62Q291.02-11.89 291.35-11.06 291.68-10.23 291.68-9.28ZM320.31-3.71L320.7 0 326.85 0 326.85-26.42 320.04-26.42 320.04-7.89Q319.73-7.25 319.29-6.74 318.85-6.23 318.29-5.86L318.29-5.86Q317.63-5.44 316.76-5.22 315.89-5 314.82-5L314.82-5Q313.62-5 312.79-5.3 311.96-5.59 311.45-6.27L311.45-6.27Q310.94-6.93 310.7-8.03 310.47-9.13 310.47-10.74L310.47-10.74 310.47-26.42 303.69-26.42 303.69-10.79Q303.69-7.79 304.36-5.65 305.03-3.52 306.25-2.15L306.25-2.15Q307.47-0.76 309.18-0.12 310.89 0.51 312.94 0.51L312.94 0.51Q315.18 0.51 317.08-0.61 318.97-1.73 320.31-3.71L320.31-3.71ZM333.57-26.42L333.57 10.16 340.35 10.16 340.35-2.29Q340.82-1.78 341.33-1.37 341.84-0.95 342.4-0.61L342.4-0.61Q343.36-0.07 344.47 0.21 345.58 0.49 346.9 0.49L346.9 0.49Q349.39 0.49 351.32-0.54 353.24-1.56 354.56-3.37L354.56-3.37Q355.86-5.15 356.53-7.62 357.2-10.08 357.2-12.96L357.2-12.96 357.2-13.48Q357.2-16.48 356.53-18.96 355.86-21.44 354.54-23.22L354.54-23.22Q353.22-24.98 351.29-25.94 349.36-26.9 346.85-26.9L346.85-26.9Q345.63-26.9 344.56-26.65 343.5-26.39 342.62-25.93L342.62-25.93Q341.89-25.54 341.26-25.01 340.62-24.49 340.08-23.83L340.08-23.83 339.84-26.42 333.57-26.42ZM350.41-13.48L350.41-13.48 350.41-12.96Q350.41-11.33 350.12-9.88 349.83-8.42 349.19-7.32L349.19-7.32Q348.56-6.23 347.54-5.59 346.53-4.96 345.09-4.96L345.09-4.96Q344.19-4.96 343.45-5.14 342.72-5.32 342.16-5.66L342.16-5.66Q341.57-6.03 341.12-6.54 340.67-7.06 340.35-7.69L340.35-7.69 340.35-18.73Q340.7-19.41 341.17-19.92 341.65-20.43 342.28-20.78L342.28-20.78Q342.84-21.07 343.53-21.23 344.21-21.39 345.04-21.39L345.04-21.39Q346.48-21.39 347.49-20.78 348.51-20.17 349.17-19.12L349.17-19.12Q349.8-18.04 350.11-16.59 350.41-15.14 350.41-13.48ZM363.57-26.42L363.57 10.16 370.36 10.16 370.36-2.29Q370.82-1.78 371.33-1.37 371.85-0.95 372.41-0.61L372.41-0.61Q373.36-0.07 374.47 0.21 375.58 0.49 376.9 0.49L376.9 0.49Q379.39 0.49 381.32-0.54 383.25-1.56 384.56-3.37L384.56-3.37Q385.86-5.15 386.53-7.62 387.2-10.08 387.2-12.96L387.2-12.96 387.2-13.48Q387.2-16.48 386.53-18.96 385.86-21.44 384.54-23.22L384.54-23.22Q383.22-24.98 381.29-25.94 379.36-26.9 376.85-26.9L376.85-26.9Q375.63-26.9 374.57-26.65 373.51-26.39 372.63-25.93L372.63-25.93Q371.89-25.54 371.26-25.01 370.62-24.49 370.09-23.83L370.09-23.83 369.84-26.42 363.57-26.42ZM380.41-13.48L380.41-13.48 380.41-12.96Q380.41-11.33 380.12-9.88 379.83-8.42 379.19-7.32L379.19-7.32Q378.56-6.23 377.55-5.59 376.53-4.96 375.09-4.96L375.09-4.96Q374.19-4.96 373.46-5.14 372.72-5.32 372.16-5.66L372.16-5.66Q371.58-6.03 371.12-6.54 370.67-7.06 370.36-7.69L370.36-7.69 370.36-18.73Q370.7-19.41 371.17-19.92 371.65-20.43 372.28-20.78L372.28-20.78Q372.85-21.07 373.53-21.23 374.21-21.39 375.04-21.39L375.04-21.39Q376.48-21.39 377.5-20.78 378.51-20.17 379.17-19.12L379.17-19.12Q379.8-18.04 380.11-16.59 380.41-15.14 380.41-13.48ZM392.55-13.45L392.55-13.45 392.55-12.94Q392.55-10.03 393.38-7.58 394.21-5.13 395.82-3.32L395.82-3.32Q397.4-1.51 399.74-0.5 402.07 0.51 405.05 0.51L405.05 0.51Q408 0.51 410.32-0.5 412.64-1.51 414.23-3.32L414.23-3.32Q415.81-5.13 416.64-7.58 417.47-10.03 417.47-12.94L417.47-12.94 417.47-13.45Q417.47-16.33 416.64-18.79 415.81-21.24 414.23-23.05L414.23-23.05Q412.61-24.85 410.29-25.88 407.98-26.9 405-26.9L405-26.9Q402.02-26.9 399.71-25.88 397.4-24.85 395.82-23.05L395.82-23.05Q394.21-21.24 393.38-18.79 392.55-16.33 392.55-13.45ZM399.33-12.94L399.33-12.94 399.33-13.45Q399.33-15.06 399.65-16.5 399.97-17.94 400.65-19.04L400.65-19.04Q401.33-20.14 402.41-20.78 403.48-21.41 405-21.41L405-21.41Q406.53-21.41 407.61-20.78 408.68-20.14 409.37-19.04L409.37-19.04Q410.03-17.94 410.34-16.5 410.66-15.06 410.66-13.45L410.66-13.45 410.66-12.94Q410.66-11.28 410.34-9.83 410.03-8.37 409.37-7.3L409.37-7.3Q408.68-6.2 407.61-5.57 406.53-4.93 405.05-4.93L405.05-4.93Q403.51-4.93 402.42-5.57 401.33-6.2 400.65-7.3L400.65-7.3Q399.97-8.37 399.65-9.83 399.33-11.28 399.33-12.94ZM442.45-26.9L442.45-26.9Q439.78-26.9 437.54-25.62 435.29-24.34 433.68-22.09L433.68-22.09 433.63-22.68 433.36-26.42 427.04-26.42 427.04 0 433.83 0 433.83-15.87Q434.29-16.99 435-17.82 435.71-18.65 436.71-19.19L436.71-19.19Q437.54-19.65 438.6-19.89 439.66-20.12 440.98-20.12L440.98-20.12Q442.25-20.12 443.65-19.96 445.06-19.8 446.4-19.48L446.4-19.48 447.4-26.25Q446.6-26.49 445.29-26.7 443.98-26.9 442.45-26.9ZM465.93-26.42L465.93-32.89 459.14-32.89 459.14-26.42 453.11-26.42 453.11-21.41 459.14-21.41 459.14-9.4Q459.14-6.79 459.83-4.92 460.51-3.05 461.78-1.86L461.78-1.86Q463.02-0.63 464.79-0.06 466.56 0.51 468.74 0.51L468.74 0.51Q469.86 0.51 471.02 0.4 472.18 0.29 473.25 0.1L473.25 0.1Q474.33-0.1 475.28-0.4 476.23-0.71 476.94-1.12L476.94-1.12 476.28-5.79Q475.82-5.66 475.17-5.54 474.52-5.42 473.79-5.32L473.79-5.32Q473.03-5.2 472.22-5.13 471.4-5.05 470.62-5.05L470.62-5.05Q469.54-5.05 468.68-5.3 467.81-5.54 467.2-6.13L467.2-6.13Q466.59-6.69 466.26-7.65 465.93-8.62 465.93-10.06L465.93-10.06 465.93-21.41 475.79-21.41 475.79-26.42 465.93-26.42ZM531.7-9.28L531.7-9.28Q531.7-8.33 531.31-7.53 530.91-6.74 530.18-6.18L530.18-6.18Q529.45-5.62 528.39-5.3 527.33-4.98 525.96-4.98L525.96-4.98Q524.42-4.98 523.14-5.32 521.86-5.66 520.95-6.4L520.95-6.4Q520.03-7.13 519.51-8.28 519-9.42 518.95-11.04L518.95-11.04 512.21-11.04Q512.21-8.28 513.28-6.23 514.34-4.17 516.17-2.66L516.17-2.66Q518.1-1.12 520.7-0.33 523.3 0.46 525.96 0.46L525.96 0.46Q528.67 0.46 530.96-0.18 533.26-0.83 534.92-2.1L534.92-2.1Q536.58-3.34 537.52-5.16 538.46-6.98 538.46-9.33L538.46-9.33Q538.46-12.04 537.21-14.11 535.97-16.19 533.87-17.75L533.87-17.75Q532.48-18.7 530.82-19.43 529.16-20.17 527.33-20.68L527.33-20.68Q525.62-21.14 524.26-21.68 522.91-22.22 521.95-22.88L521.95-22.88Q521-23.51 520.5-24.32 520-25.12 520-26.12L520-26.12Q520-27.08 520.38-27.89 520.76-28.71 521.49-29.32L521.49-29.32Q522.22-29.91 523.29-30.24 524.35-30.57 525.71-30.57L525.71-30.57Q527.2-30.57 528.31-30.16 529.43-29.76 530.18-29.05L530.18-29.05Q530.91-28.32 531.29-27.32 531.67-26.32 531.72-25.12L531.72-25.12 538.41-25.12Q538.41-27.51 537.48-29.52 536.55-31.52 534.89-32.98L534.89-32.98Q533.23-34.42 530.93-35.23 528.62-36.04 525.84-36.04L525.84-36.04Q523.15-36.04 520.86-35.34 518.56-34.64 516.88-33.35L516.88-33.35Q515.19-32.06 514.24-30.22 513.29-28.39 513.29-26.15L513.29-26.15Q513.29-24.19 514.01-22.53 514.73-20.87 516.14-19.51L516.14-19.51Q517.56-18.14 519.79-16.99 522.03-15.84 524.98-15.04L524.98-15.04Q526.89-14.53 528.17-13.93 529.45-13.33 530.26-12.62L530.26-12.62Q531.04-11.89 531.37-11.06 531.7-10.23 531.7-9.28ZM547.66 10.67L547.66 10.67Q549.71 10.67 551.21 9.99 552.71 9.3 553.76 8.3L553.76 8.3Q554.81 7.3 555.51 6.13 556.2 4.96 556.64 3.96L556.64 3.96 570.05-26.42 562.55-26.42 556.52-10.89 555.52-8.25 554.79-10.94 548.73-26.42 541.31-26.42 552.49-1.12 550.93 1.78Q550.64 2.32 550.43 2.61 550.22 2.91 549.78 3.49L549.78 3.49Q549.34 4.08 548.72 4.58 548.1 5.08 547.29 5.08L547.29 5.08Q546.9 5.08 546.26 5.04 545.61 5 545.19 5L545.19 5 544.36 10.18Q545.24 10.42 545.96 10.55 546.68 10.67 547.66 10.67ZM590.53-7.25L590.53-7.25Q590.53-6.64 590.22-6.13 589.92-5.62 589.31-5.22L589.31-5.22Q588.67-4.83 587.68-4.6 586.7-4.37 585.38-4.37L585.38-4.37Q584.28-4.37 583.24-4.59 582.2-4.81 581.4-5.3L581.4-5.3Q580.59-5.76 580.08-6.53 579.57-7.3 579.49-8.37L579.49-8.37 573.02-8.37Q573.02-6.76 573.82-5.16 574.61-3.56 576.15-2.32L576.15-2.32Q577.69-1.05 579.97-0.27 582.25 0.51 585.23 0.51L585.23 0.51Q587.94 0.51 590.14-0.09 592.34-0.68 593.9-1.76L593.9-1.76Q595.44-2.83 596.28-4.31 597.12-5.79 597.12-7.54L597.12-7.54Q597.12-9.45 596.28-10.83 595.44-12.21 593.95-13.18L593.95-13.18Q592.46-14.14 590.41-14.75 588.36-15.36 585.96-15.75L585.96-15.75Q584.3-15.99 583.23-16.32 582.15-16.65 581.54-17.07L581.54-17.07Q580.91-17.46 580.67-17.96 580.42-18.46 580.42-19.04L580.42-19.04Q580.42-19.63 580.7-20.15 580.98-20.68 581.52-21.07L581.52-21.07Q582.11-21.51 583.03-21.75 583.96-22 585.21-22L585.21-22Q586.67-22 587.71-21.63 588.75-21.26 589.36-20.65L589.36-20.65Q589.8-20.19 590.02-19.62 590.24-19.04 590.24-18.38L590.24-18.38 597.02-18.38Q597.02-20.21 596.22-21.78 595.41-23.34 593.9-24.49L593.9-24.49Q592.36-25.61 590.16-26.26 587.97-26.9 585.21-26.9L585.21-26.9Q582.57-26.9 580.47-26.25 578.37-25.59 576.91-24.46L576.91-24.46Q575.44-23.34 574.66-21.85 573.88-20.36 573.88-18.73L573.88-18.73Q573.88-17.04 574.65-15.75 575.42-14.45 576.78-13.48L576.78-13.48Q578.15-12.48 580.07-11.78 581.98-11.08 584.3-10.62L584.3-10.62Q586.13-10.28 587.33-9.94 588.53-9.59 589.26-9.2L589.26-9.2Q589.97-8.79 590.25-8.33 590.53-7.86 590.53-7.25ZM615.94-26.42L615.94-32.89 609.15-32.89 609.15-26.42 603.12-26.42 603.12-21.41 609.15-21.41 609.15-9.4Q609.15-6.79 609.84-4.92 610.52-3.05 611.79-1.86L611.79-1.86Q613.04-0.63 614.81-0.06 616.58 0.51 618.75 0.51L618.75 0.51Q619.87 0.51 621.03 0.4 622.19 0.29 623.27 0.1L623.27 0.1Q624.34-0.1 625.29-0.4 626.24-0.71 626.95-1.12L626.95-1.12 626.29-5.79Q625.83-5.66 625.18-5.54 624.53-5.42 623.8-5.32L623.8-5.32Q623.05-5.2 622.23-5.13 621.41-5.05 620.63-5.05L620.63-5.05Q619.55-5.05 618.69-5.3 617.82-5.54 617.21-6.13L617.21-6.13Q616.6-6.69 616.27-7.65 615.94-8.62 615.94-10.06L615.94-10.06 615.94-21.41 625.8-21.41 625.8-26.42 615.94-26.42ZM646.31 0.49L646.31 0.49Q650.14 0.49 652.95-1 655.76-2.49 657.05-4.32L657.05-4.32 653.66-7.98Q652.49-6.47 650.61-5.71 648.73-4.96 646.72-4.96L646.72-4.96Q645.31-4.96 644.11-5.4 642.92-5.83 641.99-6.64L641.99-6.64Q641.09-7.42 640.55-8.39 640.01-9.35 639.67-10.94L639.67-10.94 639.67-11.01 657.59-11.01 657.59-13.89Q657.59-16.8 656.78-19.2 655.98-21.61 654.44-23.32L654.44-23.32Q652.88-25.02 650.64-25.96 648.41-26.9 645.55-26.9L645.55-26.9Q642.79-26.9 640.45-25.9 638.11-24.9 636.4-23.1L636.4-23.1Q634.69-21.29 633.74-18.79 632.78-16.28 632.78-13.26L632.78-13.26 632.78-12.28Q632.78-9.62 633.75-7.29 634.71-4.96 636.5-3.25L636.5-3.25Q638.28-1.51 640.77-0.51 643.26 0.49 646.31 0.49ZM645.5-21.41L645.5-21.41Q646.8-21.41 647.79-21.01 648.78-20.61 649.46-19.92L649.46-19.92Q650.14-19.21 650.53-18.26 650.92-17.31 650.92-16.24L650.92-16.24 650.92-15.7 639.79-15.7Q640.04-16.99 640.52-18.04 641.01-19.09 641.74-19.85L641.74-19.85Q642.45-20.61 643.4-21.01 644.36-21.41 645.5-21.41ZM667.91-23.22L667.72-26.42 661.88-26.42 661.88 0 668.06 0 668.06-19.78Q668.18-20.09 668.33-20.36 668.48-20.63 668.67-20.83L668.67-20.83Q668.94-21.09 669.28-21.24 669.62-21.39 670.06-21.39L670.06-21.39Q670.45-21.39 670.79-21.28 671.14-21.17 671.4-20.9L671.4-20.9Q671.65-20.63 671.8-20.14 671.94-19.65 671.94-18.9L671.94-18.9 671.94 0 677.92 0 677.92-19.48Q677.92-19.78 677.92-19.95 677.92-20.12 677.92-20.17L677.92-20.17Q678.05-20.43 678.22-20.64 678.39-20.85 678.61-21.02L678.61-21.02Q678.88-21.19 679.18-21.29 679.49-21.39 679.88-21.39L679.88-21.39Q680.24-21.39 680.6-21.28 680.95-21.17 681.22-20.9L681.22-20.9Q681.49-20.61 681.65-20.12 681.81-19.63 681.81-18.87L681.81-18.87 681.81 0 687.98 0 687.98-18.85Q687.98-21.04 687.55-22.57 687.13-24.1 686.37-25.07L686.37-25.07Q685.59-26.03 684.55-26.46 683.51-26.9 682.32-26.9L682.32-26.9Q681.37-26.9 680.56-26.66 679.75-26.42 679.12-25.98L679.12-25.98Q678.61-25.63 678.18-25.16 677.75-24.68 677.41-24.1L677.41-24.1Q677.19-24.71 676.89-25.18 676.58-25.66 676.17-26L676.17-26Q675.63-26.46 674.9-26.68 674.16-26.9 673.24-26.9L673.24-26.9Q671.33-26.9 670-25.92 668.67-24.93 667.91-23.22L667.91-23.22Z" opacity="1" transform="matrix(1,0,0,1,0,0)" fill="#000000" class="slogan-text-1" data-fill-palette-color="quaternary" id="text-1"></path></svg></g></svg></g></svg></g></svg></g></svg></g><defs></defs></svg><rect width="395.52" height="97.10571937880026" fill="none" stroke="none" visibility="hidden"></rect></g></svg></g></svg>